<?xml version="1.0" encoding="UTF-8"?>
<svg width="32px" height="32px" viewBox="0 0 32 32" version="1.1" xmlns="http://www.w3.org/2000/svg" xmlns:xlink="http://www.w3.org/1999/xlink">
    <!-- Generator: Sketch 55.2 (78181) - https://sketchapp.com -->
    <title>FOX Token svg</title>
    <desc>Created with Sketch.</desc>
    <g id="Page-1" stroke="none" stroke-width="1" fill="none" fill-rule="evenodd">
        <g id="FOX-Token-svg" fill-rule="nonzero">
            <circle id="Oval" fill="#3972FA" cx="16" cy="16" r="15.7333333"></circle>
            <path d="M22.88,9.49290667 L22.1333333,14.18624 L19.36,10.88064 L22.88,9.49290667 Z M22.1333333,16.2139733 L22.7733333,18.7729067 L17.44,20.2673067 L22.1333333,16.2139733 Z M10.6133333,14.9339733 L13.4933333,11.20064 L18.4,11.20064 L21.6,14.9339733 L10.6133333,14.9339733 Z M21.1733333,15.78624 L16.0533333,20.2673067 L10.8266667,15.78624 L21.1733333,15.78624 Z M12.5333333,10.88064 L9.97333333,14.18624 L9.22666667,9.49290667 L12.5333333,10.88064 Z M14.56,20.1595733 L9.22666667,18.6673067 L9.97333333,16.2139733 L14.56,20.1595733 Z M15.52,21.4395733 L14.56,22.50624 C13.7066667,21.6529067 12.7466667,21.0139733 11.7866667,20.3729067 L15.52,21.4395733 Z M20.4266667,20.3729067 C19.4666667,21.0139733 18.5066667,21.7595733 17.6533333,22.50624 L16.5866667,21.3339733 L20.4266667,20.3729067 Z M24.0533333,8.00064 L18.5066667,10.2395733 L13.28,10.2395733 L7.94666667,8.00064 L9.12,15.2529067 L7.94666667,19.20064 L10.9333333,21.0139733 C12.32,21.8673067 13.6,22.9339733 14.7733333,24.2139733 L15.9466667,25.60064 L17.2266667,24.2139733 C18.2933333,23.0395733 19.5733333,21.9729067 20.8533333,21.1195733 L23.84,19.30624 L22.7733333,15.3595733 L24.0533333,8.00064 Z" id="Fill-1" fill="#FFFFFF"></path>
        </g>
    </g>
</svg>